<svg width="18" height="18" viewBox="0 0 18 18" fill="none" xmlns="http://www.w3.org/2000/svg">
<g clip-path="url(#clip0_737_3095)">
<path d="M16.1895 7.845L8.652 15.4012C7.1895 16.863 4.8105 16.863 3.34875 15.4012C1.887 13.9395 1.88625 11.5597 3.34875 10.0972L11.3197 2.1585C12.1973 1.281 13.6245 1.281 14.502 2.1585C15.3788 3.036 15.3795 4.4625 14.502 5.34L8.12175 11.688C7.82925 11.9805 7.35375 11.9805 7.06125 11.688C6.76875 11.3955 6.76875 10.92 7.06125 10.6275L12.381 5.34L11.3197 4.2795L6 9.56625C5.121 10.4452 5.12175 11.871 6 12.7493C6.87825 13.6275 8.30325 13.6275 9.1815 12.7493L15.5618 6.40125C16.2945 5.6685 16.6597 4.70925 16.6597 3.74925C16.6597 1.6725 14.9752 0 12.9097 0C11.9497 0 10.9905 0.366 10.2577 1.09875L2.2875 9.036C1.263 10.062 0.75 11.4053 0.75 12.7493C0.75 15.6465 3.0975 17.9993 6 17.9993C7.344 17.9993 8.68725 17.4863 9.7125 16.4618L17.25 8.9055L16.1895 7.845Z" fill="#89868D"/>
</g>
<defs>
<clipPath id="clip0_737_3095">
<rect width="18" height="18" fill="white"/>
</clipPath>
</defs>
</svg>
