<svg width="18" height="18" viewBox="0 0 18 18" fill="none" xmlns="http://www.w3.org/2000/svg">
<g clip-path="url(#clip0_737_3091)">
<path d="M9 0.75C4.2465 0.75 0 3.9195 0 8.25525C0 9.79275 0.55425 11.3025 1.53525 12.474C1.5765 13.8465 0.768 15.816 0.0405 17.25C1.992 16.8975 4.76625 16.119 6.024 15.348C12.951 17.0333 18 12.7943 18 8.25525C18 3.89625 13.7242 0.75 9 0.75ZM5.25 9.375C4.62825 9.375 4.125 8.87175 4.125 8.25C4.125 7.62825 4.62825 7.125 5.25 7.125C5.87175 7.125 6.375 7.62825 6.375 8.25C6.375 8.87175 5.87175 9.375 5.25 9.375ZM9 9.375C8.37825 9.375 7.875 8.87175 7.875 8.25C7.875 7.62825 8.37825 7.125 9 7.125C9.62175 7.125 10.125 7.62825 10.125 8.25C10.125 8.87175 9.62175 9.375 9 9.375ZM12.75 9.375C12.129 9.375 11.625 8.87175 11.625 8.25C11.625 7.62825 12.129 7.125 12.75 7.125C13.3717 7.125 13.875 7.62825 13.875 8.25C13.875 8.87175 13.3717 9.375 12.75 9.375Z" fill="#89868D"/>
</g>
<defs>
<clipPath id="clip0_737_3091">
<rect width="18" height="18" fill="white"/>
</clipPath>
</defs>
</svg>
