<svg width="18" height="18" viewBox="0 0 18 18" fill="none" xmlns="http://www.w3.org/2000/svg">
<path d="M13.4977 13.5H4.5015L4.5 13.0328C4.5 12.0885 4.575 11.5433 5.691 11.2852C6.954 10.9935 8.199 10.7333 7.59975 9.6285C5.82525 6.35625 7.09425 4.5 8.99925 4.5C10.8675 4.5 12.1687 6.28725 10.3988 9.62925C9.8175 10.7272 11.0182 10.9883 12.3075 11.286C13.425 11.544 13.4993 12.09 13.4993 13.0358L13.4977 13.5ZM17.106 11.8395C16.1385 11.616 15.2385 11.4202 15.6742 10.5967C17.001 8.09025 16.026 6.75 14.6243 6.75C13.6755 6.75 12.9382 7.36275 12.9382 8.493C12.9382 11.4203 14.6392 9.8205 14.6227 13.5H17.9985L18 13.1528C18 12.4433 17.9445 12.033 17.106 11.8395ZM0.0015 13.5H3.37725C3.3615 9.8205 5.06175 11.421 5.06175 8.493C5.06175 7.36275 4.3245 6.75 3.37575 6.75C1.974 6.75 0.999 8.09025 2.3265 10.5967C2.76225 11.421 1.86225 11.616 0.89475 11.8395C0.0555 12.033 0 12.4433 0 13.1528L0.0015 13.5Z" fill="#89868D"/>
</svg>
